<mxfile host="app.diagrams.net" agent="Mozilla/5.0 (Windows NT 10.0; Win64; x64) AppleWebKit/537.36 (KHTML, like Gecko) Chrome/137.0.0.0 Safari/537.36" version="27.1.4">
  <diagram name="Страница — 1" id="UU6X1Q2LLAYiboO9e5UY">
    <mxGraphModel dx="561" dy="335" grid="1" gridSize="10" guides="1" tooltips="1" connect="1" arrows="1" fold="1" page="1" pageScale="1" pageWidth="827" pageHeight="1169" math="0" shadow="0">
      <root>
        <mxCell id="0" />
        <mxCell id="1" parent="0" />
        <mxCell id="QgKklc_-N7JBqiMBvKZP-206" value="А = N(0,&amp;nbsp;σ&lt;sup&gt;&lt;font style=&quot;font-size: 8px;&quot;&gt;2&lt;/font&gt;&lt;/sup&gt;)" style="shape=trapezoid;perimeter=trapezoidPerimeter;whiteSpace=wrap;html=1;fixedSize=1;fillColor=#FEBE0E;" vertex="1" parent="1">
          <mxGeometry x="300" y="340" width="160" height="60" as="geometry" />
        </mxCell>
        <mxCell id="QgKklc_-N7JBqiMBvKZP-207" value="" style="shape=trapezoid;perimeter=trapezoidPerimeter;whiteSpace=wrap;html=1;fixedSize=1;rotation=-180;fillColor=#FEBE0E;" vertex="1" parent="1">
          <mxGeometry x="300" y="240" width="160" height="60" as="geometry" />
        </mxCell>
        <mxCell id="QgKklc_-N7JBqiMBvKZP-208" value="Веса обученной&lt;div&gt;модели&lt;/div&gt;&lt;div&gt;&lt;br&gt;&lt;/div&gt;&lt;div&gt;W&amp;nbsp;∈ R&lt;sup&gt;dxd&lt;/sup&gt;&lt;/div&gt;" style="rounded=1;whiteSpace=wrap;html=1;fillColor=#2DAAF0;" vertex="1" parent="1">
          <mxGeometry x="100" y="240" width="160" height="160" as="geometry" />
        </mxCell>
        <mxCell id="QgKklc_-N7JBqiMBvKZP-209" value="B = 0" style="text;html=1;align=center;verticalAlign=middle;whiteSpace=wrap;rounded=0;" vertex="1" parent="1">
          <mxGeometry x="350" y="255" width="60" height="30" as="geometry" />
        </mxCell>
        <mxCell id="QgKklc_-N7JBqiMBvKZP-210" value="" style="rounded=0;whiteSpace=wrap;html=1;fillColor=#FEBE0E;" vertex="1" parent="1">
          <mxGeometry x="150" y="180" width="260" height="20" as="geometry" />
        </mxCell>
        <mxCell id="QgKklc_-N7JBqiMBvKZP-211" value="" style="rounded=0;whiteSpace=wrap;html=1;fillColor=#FEBE0E;" vertex="1" parent="1">
          <mxGeometry x="150" y="440" width="260" height="20" as="geometry" />
        </mxCell>
        <mxCell id="QgKklc_-N7JBqiMBvKZP-212" value="" style="shape=flexArrow;endArrow=classic;html=1;rounded=0;" edge="1" parent="1">
          <mxGeometry width="50" height="50" relative="1" as="geometry">
            <mxPoint x="320" y="430" as="sourcePoint" />
            <mxPoint x="360" y="410" as="targetPoint" />
          </mxGeometry>
        </mxCell>
        <mxCell id="QgKklc_-N7JBqiMBvKZP-214" value="" style="shape=flexArrow;endArrow=classic;html=1;rounded=0;" edge="1" parent="1">
          <mxGeometry width="50" height="50" relative="1" as="geometry">
            <mxPoint x="220" y="230" as="sourcePoint" />
            <mxPoint x="260" y="210" as="targetPoint" />
          </mxGeometry>
        </mxCell>
        <mxCell id="QgKklc_-N7JBqiMBvKZP-215" value="" style="shape=flexArrow;endArrow=classic;html=1;rounded=0;" edge="1" parent="1">
          <mxGeometry width="50" height="50" relative="1" as="geometry">
            <mxPoint x="360" y="230" as="sourcePoint" />
            <mxPoint x="320" y="210" as="targetPoint" />
          </mxGeometry>
        </mxCell>
        <mxCell id="QgKklc_-N7JBqiMBvKZP-216" value="" style="shape=flexArrow;endArrow=classic;html=1;rounded=0;" edge="1" parent="1">
          <mxGeometry width="50" height="50" relative="1" as="geometry">
            <mxPoint x="260" y="430" as="sourcePoint" />
            <mxPoint x="220" y="410" as="targetPoint" />
          </mxGeometry>
        </mxCell>
        <mxCell id="QgKklc_-N7JBqiMBvKZP-217" value="h" style="text;html=1;align=center;verticalAlign=middle;whiteSpace=wrap;rounded=0;" vertex="1" parent="1">
          <mxGeometry x="90" y="175" width="60" height="30" as="geometry" />
        </mxCell>
        <mxCell id="QgKklc_-N7JBqiMBvKZP-219" value="x" style="text;html=1;align=center;verticalAlign=middle;whiteSpace=wrap;rounded=0;" vertex="1" parent="1">
          <mxGeometry x="90" y="435" width="60" height="30" as="geometry" />
        </mxCell>
        <mxCell id="QgKklc_-N7JBqiMBvKZP-220" value="d" style="text;html=1;align=center;verticalAlign=middle;whiteSpace=wrap;rounded=0;" vertex="1" parent="1">
          <mxGeometry x="250" y="460" width="60" height="30" as="geometry" />
        </mxCell>
        <mxCell id="QgKklc_-N7JBqiMBvKZP-221" value="r" style="text;html=1;align=center;verticalAlign=middle;whiteSpace=wrap;rounded=0;" vertex="1" parent="1">
          <mxGeometry x="350" y="310" width="60" height="30" as="geometry" />
        </mxCell>
      </root>
    </mxGraphModel>
  </diagram>
</mxfile>
